<svg xmlns="http://www.w3.org/2000/svg" width="42" height="43" viewBox="0 0 42 43" fill="none">
    <path fill-rule="evenodd" clip-rule="evenodd" d="M38.9611 27.522L2.97965 27.5145C1.39122 27.5145 0.0134277 28.7574 0.0134277 30.0857C0.0134277 31.2603 0.0134277 33.1104 0.0134277 34.6006C0.0134277 36.6808 1.11536 38.6905 3.12582 40.1613C5.04109 41.5623 7.63475 42.3591 10.3431 42.3591C16.771 42.3591 25.2049 42.3591 31.6329 42.3591C34.3405 42.3591 36.9349 41.5623 38.8494 40.1613C40.8599 38.6905 41.9626 36.6808 41.9626 34.6006C41.9626 33.1104 41.9626 31.2603 41.9626 30.0857C41.9626 29.5115 41.7204 28.9605 41.3007 28.5145C40.7452 27.9231 39.8711 27.522 38.9611 27.522Z" fill="#F8AC3A"/>
    <path fill-rule="evenodd" clip-rule="evenodd" d="M38.9611 27.522L35.2422 27.5145C36.1523 27.5145 37.0263 28.0692 37.5818 28.6607C38.0016 29.1067 38.2437 29.6577 38.2437 30.2319C38.2437 31.4065 38.2437 33.2566 38.2437 34.7468C38.2437 36.827 37.141 38.8367 35.1305 40.3074C33.6943 41.3584 31.875 42.0698 29.9125 42.3591H31.6328C34.3404 42.3591 36.9349 41.5623 38.8494 40.1613C40.8598 38.6905 41.9625 36.6808 41.9625 34.6006C41.9625 33.1104 41.9625 31.2603 41.9625 30.0857C41.9625 29.5115 41.7204 28.9605 41.3006 28.5145C40.7451 27.9231 39.8711 27.522 38.9611 27.522Z" fill="#F39404"/>
    <path fill-rule="evenodd" clip-rule="evenodd" d="M2.6453 19.1924L39.2107 19.1714C39.9596 19.1714 40.6747 18.849 41.1732 18.2868C41.6709 17.7246 41.9033 16.9757 41.8126 16.2299C41.8119 16.2261 41.8119 16.2224 41.8111 16.2186C40.5608 7.11383 31.7003 0 20.9269 0C10.1542 0 1.29374 7.11308 0.0216497 16.2141C0.0209001 16.2186 0.0201506 16.2231 0.019401 16.2269C-0.0720519 16.9787 0.162577 17.7344 0.664818 18.3011C1.16631 18.8685 1.88744 19.1931 2.6453 19.1924Z" fill="#F8AC3A"/>
    <path fill-rule="evenodd" clip-rule="evenodd" d="M19.103 0.0689645C29.0392 0.817828 36.9851 7.63332 38.1642 16.2186C38.1642 16.2224 38.165 16.2261 38.1657 16.2299C38.2564 16.9757 38.024 17.7246 37.5255 18.2868C37.0278 18.849 36.3127 19.1714 35.5638 19.1714H39.2107C39.9595 19.1714 40.6747 18.849 41.1732 18.2868C41.6709 17.7246 41.9033 16.9757 41.8126 16.2299C41.8118 16.2261 41.8118 16.2224 41.8111 16.2186C40.5607 7.11383 31.7003 0 20.9268 0C20.3129 0 19.705 0.023238 19.103 0.0689645Z" fill="#F39404"/>
    <path fill-rule="evenodd" clip-rule="evenodd" d="M3.23227 17.6932C1.45494 17.6932 0.013429 19.1347 0.013429 20.9136V20.9143C0.0126794 21.7621 0.349256 22.5747 0.948197 23.1744C1.54714 23.7734 2.35897 24.1107 3.20678 24.1107C3.20678 24.1107 3.20678 24.1107 38.7437 24.1107C40.5211 24.1107 41.9626 22.6692 41.9626 20.8903C41.9633 20.0425 41.6267 19.2292 41.0278 18.6303C40.4289 18.0306 39.6163 17.6932 38.7692 17.6932H3.23227Z" fill="#F0682D"/>
    <path fill-rule="evenodd" clip-rule="evenodd" d="M0.835815 18.7644C0.869548 18.7629 0.90403 18.7629 0.938513 18.7629H36.4754C37.3225 18.7629 38.1351 19.0995 38.734 19.6992C39.333 20.2981 39.6688 21.1107 39.6688 21.9585C39.6688 22.7846 39.3577 23.5387 38.8465 24.1084C40.5758 24.0545 41.9626 22.6347 41.9626 20.8903C41.9634 20.0425 41.6268 19.2292 41.0279 18.6303C40.4289 18.0306 39.6163 17.6932 38.7693 17.6932H3.23233C2.28032 17.6932 1.42501 18.107 0.835815 18.7644Z" fill="#E54F0D"/>
    <path fill-rule="evenodd" clip-rule="evenodd" d="M22.5393 29.028C23.0745 29.028 23.5895 29.2304 23.9808 29.5955C25.1389 30.6749 27.1052 32.5085 27.1052 32.5085C27.393 32.7768 27.8398 32.7768 28.1276 32.5085C28.1276 32.5085 30.0939 30.6749 31.252 29.5955C31.6433 29.2304 32.1583 29.028 32.6935 29.028C34.7227 29.028 38.7804 29.028 38.7804 29.028C40.5577 29.028 41.9992 27.5865 42 25.8077C42 24.9599 41.6642 24.1465 41.0652 23.5476C40.4663 22.9479 39.6537 22.6113 38.8066 22.6113C31.6021 22.6113 10.505 22.6113 3.2697 22.6113C1.49237 22.6113 0.0508595 24.0521 0.0501099 25.8309C0.0501099 26.6787 0.386687 27.4921 0.984878 28.0918C1.58382 28.6907 2.3964 29.028 3.24346 29.028H22.5393Z" fill="#FFFC5C"/>
    <path fill-rule="evenodd" clip-rule="evenodd" d="M0.370209 24.4299C0.79374 24.2252 1.269 24.1106 1.77049 24.1106C9.00576 24.1106 30.1029 24.1106 37.3074 24.1106C38.1545 24.1106 38.9671 24.4471 39.566 25.0468C40.1649 25.6458 40.5008 26.4583 40.5008 27.3062C40.5008 27.8084 40.3853 28.2844 40.1807 28.7079C41.2571 28.1877 41.9993 27.0843 42 25.8077C42 24.9599 41.6642 24.1465 41.0652 23.5476C40.4663 22.9479 39.6537 22.6113 38.8066 22.6113C31.6021 22.6113 10.505 22.6113 3.26971 22.6113C1.99387 22.6113 0.89194 23.3534 0.370209 24.4299Z" fill="#FEFA22"/>
    <path d="M19.1083 34.6137C19.6258 34.6137 20.0453 34.1941 20.0453 33.6766C20.0453 33.1591 19.6258 32.7396 19.1083 32.7396C18.5908 32.7396 18.1713 33.1591 18.1713 33.6766C18.1713 34.1941 18.5908 34.6137 19.1083 34.6137Z" fill="#F39404"/>
    <path d="M5.0665 33.834C5.584 33.834 6.00352 33.4145 6.00352 32.897C6.00352 32.3795 5.584 31.96 5.0665 31.96C4.549 31.96 4.12949 32.3795 4.12949 32.897C4.12949 33.4145 4.549 33.834 5.0665 33.834Z" fill="#F39404"/>
    <path d="M11.3677 38.7515C11.8852 38.7515 12.3048 38.332 12.3048 37.8145C12.3048 37.297 11.8852 36.8774 11.3677 36.8774C10.8502 36.8774 10.4307 37.297 10.4307 37.8145C10.4307 38.332 10.8502 38.7515 11.3677 38.7515Z" fill="#F39404"/>
    <path d="M26.0191 38.4389C26.5366 38.4389 26.9561 38.0193 26.9561 37.5018C26.9561 36.9843 26.5366 36.5648 26.0191 36.5648C25.5016 36.5648 25.0821 36.9843 25.0821 37.5018C25.0821 38.0193 25.5016 38.4389 26.0191 38.4389Z" fill="#F39404"/>
    <path d="M35.0685 36.4876C35.586 36.4876 36.0055 36.068 36.0055 35.5505C36.0055 35.033 35.586 34.6135 35.0685 34.6135C34.551 34.6135 34.1315 35.033 34.1315 35.5505C34.1315 36.068 34.551 36.4876 35.0685 36.4876Z" fill="#F39404"/>
    <path d="M6.98783 14.6766C7.50533 14.6766 7.92485 14.2571 7.92485 13.7396C7.92485 13.2221 7.50533 12.8026 6.98783 12.8026C6.47033 12.8026 6.05081 13.2221 6.05081 13.7396C6.05081 14.2571 6.47033 14.6766 6.98783 14.6766Z" fill="#F39404"/>
    <path d="M12.2239 6.90797C12.7414 6.90797 13.1609 6.48845 13.1609 5.97095C13.1609 5.45345 12.7414 5.03394 12.2239 5.03394C11.7064 5.03394 11.2869 5.45345 11.2869 5.97095C11.2869 6.48845 11.7064 6.90797 12.2239 6.90797Z" fill="#F39404"/>
    <path d="M18.2056 14.0618C18.7231 14.0618 19.1427 13.6423 19.1427 13.1248C19.1427 12.6073 18.7231 12.1877 18.2056 12.1877C17.6881 12.1877 17.2686 12.6073 17.2686 13.1248C17.2686 13.6423 17.6881 14.0618 18.2056 14.0618Z" fill="#F39404"/>
    <path d="M34.0359 13.2277C34.5534 13.2277 34.9729 12.8082 34.9729 12.2907C34.9729 11.7732 34.5534 11.3536 34.0359 11.3536C33.5184 11.3536 33.0989 11.7732 33.0989 12.2907C33.0989 12.8082 33.5184 13.2277 34.0359 13.2277Z" fill="#F39404"/>
    <path d="M26.2259 15.5924C26.7434 15.5924 27.1629 15.1729 27.1629 14.6554C27.1629 14.1379 26.7434 13.7184 26.2259 13.7184C25.7084 13.7184 25.2889 14.1379 25.2889 14.6554C25.2889 15.1729 25.7084 15.5924 26.2259 15.5924Z" fill="#F39404"/>
    <path d="M29.1525 7.84486C29.67 7.84486 30.0895 7.42534 30.0895 6.90784C30.0895 6.39034 29.67 5.97083 29.1525 5.97083C28.635 5.97083 28.2155 6.39034 28.2155 6.90784C28.2155 7.42534 28.635 7.84486 29.1525 7.84486Z" fill="#F39404"/>
</svg>